<svg xmlns="http://www.w3.org/2000/svg" xmlns:xlink="http://www.w3.org/1999/xlink" width="98" height="62" viewBox="0 0 98 62"><defs><linearGradient id="b" x1="37.66%" x2="69.422%" y1="75.993%" y2="4.407%"><stop offset="0%" stop-color="#00B667"/><stop offset="100%" stop-color="#009952"/></linearGradient><path id="a" d="M21.122,3.618 L8.349,25.739 C8.346,25.747 8.341,25.755 8.338,25.761 L8.338,25.761 L0.958,38.545 C0.317,39.654 0.008,40.864 0,42.059 L0,42.059 L0,42.152 C0.016,44.603 1.295,46.98 3.57,48.294 L3.57,48.294 C6.984,50.266 11.35,49.096 13.322,45.683 L13.322,45.683 L35.574,7.137 L33.512,3.565 L33.51,3.568 C32.275,1.436 29.971,0 27.329,0 L27.329,0 C24.669,0 22.373,1.467 21.122,3.618"/></defs><g fill="none" fill-rule="evenodd"><path fill="#00D97C" d="M89.3025 61.4525 89.3025 61.4525C85.4055 61.4525 82.2465 58.2935 82.2465 54.3965L82.2465 29.8595C82.2465 25.9625 85.4055 22.8035 89.3025 22.8035 93.1985 22.8035 96.3585 25.9625 96.3585 29.8595L96.3585 54.3965C96.3585 58.2935 93.1985 61.4525 89.3025 61.4525M97.3044 9.263C97.3104 9.221 97.3154 9.178 97.3214 9.136 97.3384 9.003 97.3514 8.869 97.3624 8.735 97.3664 8.691 97.3694 8.648 97.3724 8.605 97.3834 8.434 97.3904 8.263 97.3904 8.09L97.3904 8.089C97.3904 3.622 93.7694-1.42108547e-14 89.3024-1.42108547e-14 84.8354-1.42108547e-14 81.2144 3.622 81.2144 8.089 81.2144 12.555 84.8354 16.177 89.3024 16.177L89.3024 19.684C90.3374 19.171 96.2294 15.013 97.2404 9.641 97.2644 9.516 97.2854 9.39 97.3044 9.263M70.1926 50.6732 43.6176 4.6442C41.9636 1.7792 38.8816.0002 35.5746.0002 32.2676.0012 29.1856 1.7802 27.5326 4.6442L24.4736 9.9422 21.1106 15.7652C22.3586 13.6042 24.6606 12.1292 27.3296 12.1292 29.9706 12.1292 32.2756 13.5652 33.5096 15.6972L33.5126 15.6942 57.8286 57.8112C59.1506 60.1012 61.5506 61.3812 64.0176 61.3812 65.2286 61.3812 66.4556 61.0722 67.5796 60.4232 70.9936 58.4522 72.1636 54.0872 70.1926 50.6732"/><g transform="translate(0 12.129)"><mask id="c" fill="#fff"><use xlink:href="#a"/></mask><path fill="url(#b)" d="M21.122,3.618 L8.349,25.739 C8.346,25.747 8.341,25.755 8.338,25.761 L8.338,25.761 L0.958,38.545 C0.317,39.654 0.008,40.864 0,42.059 L0,42.059 L0,42.152 C0.016,44.603 1.295,46.98 3.57,48.294 L3.57,48.294 C6.984,50.266 11.35,49.096 13.322,45.683 L13.322,45.683 L35.574,7.137 L33.512,3.565 L33.51,3.568 C32.275,1.436 29.971,0 27.329,0 L27.329,0 C24.669,0 22.373,1.467 21.122,3.618" mask="url(#c)"/></g></g></svg>